<?xml version="1.0" encoding="utf-8"?>
<!-- Generator: Adobe Illustrator 24.0.1, SVG Export Plug-In . SVG Version: 6.00 Build 0)  -->
<svg version="1.1" xmlns="http://www.w3.org/2000/svg" xmlns:xlink="http://www.w3.org/1999/xlink" x="0px" y="0px"
	 viewBox="0 0 443.49 468.02" style="enable-background:new 0 0 443.49 468.02;" xml:space="preserve">
<style type="text/css">
	.st0{fill:none;stroke:#0E496D;stroke-width:13;stroke-miterlimit:10;}
	.st1{fill:#0E496D;}
</style>
<g id="Capa_1">
	<circle class="st0" cx="221.57" cy="222.26" r="171.57"/>
</g>
<g id="Capa_2">
	<path class="st1" d="M212.19,185.56l-35.63-34.7c-5.31-5.17-13.83-4.97-18.88,0.45l-6.97,7.47c-4.87,5.22-4.72,13.36,0.35,18.39
		l34.5,34.27c5.07,5.04,5.22,13.19,0.33,18.41l-35.3,37.69c-4.83,5.15-4.75,13.19,0.17,18.25l7.68,7.9
		c5.07,5.21,13.39,5.35,18.62,0.32l35.62-34.21c5.07-4.87,13.05-4.92,18.18-0.12L267,293.48c5.57,5.21,14.37,4.64,19.22-1.24
		l6.88-8.34c4.34-5.27,3.96-12.97-0.88-17.78l-34.9-34.66c-5.13-5.09-5.21-13.37-0.19-18.56l34.35-35.51
		c5.11-5.28,4.93-13.72-0.4-18.77l-8.56-8.12c-5.27-5-13.59-4.81-18.63,0.44l-32.96,34.33
		C225.86,190.53,217.44,190.68,212.19,185.56z"/>
</g>
</svg>
