<?xml version="1.0" encoding="utf-8"?>
<!-- Generator: Adobe Illustrator 24.0.1, SVG Export Plug-In . SVG Version: 6.00 Build 0)  -->
<svg version="1.1" xmlns="http://www.w3.org/2000/svg" xmlns:xlink="http://www.w3.org/1999/xlink" x="0px" y="0px"
	 viewBox="0 0 443.49 468.02" style="enable-background:new 0 0 443.49 468.02;" xml:space="preserve">
<style type="text/css">
	.st0{fill:none;stroke:#2F98D5;stroke-width:13;stroke-miterlimit:10;}
	.st1{fill:#2F98D5;}
</style>
<g id="Capa_1">
	<circle class="st0" cx="231.18" cy="234.18" r="171.57"/>
</g>
<g id="Capa_2">
	<path class="st1" d="M101.54,273.84c3.75-2.17,11.17-7.2,15.88-16.57c1.92-3.83,2.92-7.44,3.45-10.36
		c-4.79-6.29-13.16-19.26-13.81-36.59c-1.47-39.26,38.11-62.88,42.8-65.59c40.86-23.54,83.67-3.05,86.99-1.38
		c7.07,3.56,43.68,21.8,46.26,56.61c2.03,27.39-18.32,47.38-22.09,51.09c-27.06,26.59-74.09,30.71-120.13,12.43
		c-2.08,2.48-7.48,8.23-16.57,11.05C113.51,277.87,104.42,274.91,101.54,273.84z"/>
	<path class="st1" d="M182.31,293.17c7.29,0.2,17.6-0.03,29.69-2.07c17.31-2.92,43.73-7.37,64.21-27.62
		c24.19-23.92,26.04-56,26.23-65.59c7.09,2.1,21.66,7.52,33.83,21.4c3.51,4.01,20.03,22.84,17.26,49.71
		c-1.82,17.65-11.03,29.69-15.19,34.52c1.08,2.89,2.5,6.08,4.4,9.42c4.1,7.22,8.91,12.5,12.86,16.12
		c-3.83,0.76-9.07,1.35-15.19,0.69c-10.74-1.15-18.61-5.52-22.78-8.28c-5.41,2.52-13.42,5.81-23.47,8.28
		c-11.49,2.83-50.19,12.37-84.23-8.98C203,316.44,192.04,308.16,182.31,293.17z"/>
</g>
</svg>
