<?xml version="1.0" encoding="utf-8"?>
<!-- Generator: Adobe Illustrator 24.0.1, SVG Export Plug-In . SVG Version: 6.00 Build 0)  -->
<svg version="1.1" xmlns="http://www.w3.org/2000/svg" xmlns:xlink="http://www.w3.org/1999/xlink" x="0px" y="0px"
	 viewBox="0 0 443.49 468.02" style="enable-background:new 0 0 443.49 468.02;" xml:space="preserve">
<style type="text/css">
	.st0{fill:none;stroke:#1160AB;stroke-width:13;stroke-miterlimit:10;}
	.st1{fill:#0D60AB;}
</style>
<g id="Capa_1">
	<circle class="st0" cx="224.94" cy="221.77" r="171.57"/>
</g>
<g id="Capa_2">
	<path class="st1" d="M201.84,236.54l-6.36-116.24c-0.39-7.08,5.25-13.03,12.33-13.03h37.59c7.14,0,12.79,6.03,12.33,13.15
		l-7.52,116.24c-0.42,6.5-5.81,11.56-12.33,11.56h-23.71C207.62,248.21,202.2,243.09,201.84,236.54z"/>
	<path class="st1" d="M190.56,312.03c-5.07-15.56,1.67-32.06,14.02-40.67c14.56-10.14,35.67-8.47,47.68,4.91
		c9.82,10.94,11.26,27.14,4.91,39.97c-6.22,12.56-19.53,21.12-34.36,20.34C208.2,335.79,195.14,326.09,190.56,312.03z"/>
</g>
</svg>
