<?xml version="1.0" encoding="utf-8"?>
<!-- Generator: Adobe Illustrator 24.0.1, SVG Export Plug-In . SVG Version: 6.00 Build 0)  -->
<svg version="1.1" xmlns="http://www.w3.org/2000/svg" xmlns:xlink="http://www.w3.org/1999/xlink" x="0px" y="0px"
	 viewBox="0 0 443.49 468.02" style="enable-background:new 0 0 443.49 468.02;" xml:space="preserve">
<style type="text/css">
	.st0{fill:none;stroke:#68C7E9;stroke-width:13;stroke-miterlimit:10;}
	.st1{fill:#68C7E9;}
</style>
<g id="Capa_1">
	<circle class="st0" cx="214.3" cy="225.27" r="171.57"/>
</g>
<g id="Capa_2">
	<path class="st1" d="M302.39,159.55c-23.41-31.14-57.14-39.03-70.13-41.15c-5.42-0.89-54.1-8.02-92.15,26.08
		c-8.41,7.54-19.87,20.29-27.24,38.83c-12.93,32.54-9.85,74.35,14.49,106.64c24.98,33.15,68.14,50.68,110.12,41.73
		c52.69-11.24,74.46-57.99,76.5-62.59C329.64,233.89,326.14,191.15,302.39,159.55z M247.2,191.42c6.59-0.87,12.92,3.27,15.07,9.27
		c2.65,7.41-1.55,16.33-9.27,18.55c-8.19,2.35-17.02-3.77-17.97-12.17C234.2,199.69,239.65,192.42,247.2,191.42z M177.2,188.53
		c6.59-0.87,12.92,3.27,15.07,9.27c2.65,7.41-1.55,16.33-9.27,18.55c-8.19,2.35-17.02-3.77-17.97-12.17
		C164.19,196.8,169.64,189.53,177.2,188.53z M268.24,285.94c-0.74,2.57-3.54,4.75-6.19,5.07c-4.52,0.54-7.95-4.47-12.51-8.95
		c0,0-8.99-8.82-21.17-13.06c-14.54-5.05-32.13,0.96-42.69,7.76c-9.8,6.32-15.8,14.78-21.44,12.52c-1.94-0.78-3.54-2.71-3.97-4.76
		c-1.69-8.05,14.51-18.43,23.99-22.93c4.28-2.03,30.04-13.71,56.81-2.12C254.96,265.49,270.42,278.33,268.24,285.94z"/>
</g>
</svg>
